<svg width="211" height="166" viewBox="0 0 211 166" fill="none" xmlns="http://www.w3.org/2000/svg">
<path d="M51.52 138.333H71.4074V81.3372L42.9968 56.1919V128.275C42.9968 133.832 46.8109 138.333 51.52 138.333Z" fill="#4285F4"/>
<path d="M139.593 138.333H159.48C164.189 138.333 168.003 133.832 168.003 128.275V56.1919L139.593 81.3372V138.333Z" fill="#34A853"/>
<path d="M139.593 37.752V81.3373L168.003 56.1919V42.7811C168.003 30.3509 155.979 23.2515 147.548 30.7113L139.593 37.752Z" fill="#FBBC04"/>
<path d="M71.4072 81.3372V37.752L105.5 67.9264L139.592 37.752V81.3372L105.5 111.512L71.4072 81.3372Z" fill="#EA4335"/>
<path d="M42.9968 42.7811V56.1919L71.4074 81.3373V37.752L63.4524 30.7113C55.0216 23.2515 42.9968 30.3509 42.9968 42.7811V42.7811Z" fill="#C5221F"/>
</svg>
